<svg xmlns="http://www.w3.org/2000/svg" width="172.659" height="239.873" viewBox="0 0 172.659 239.873">
  <path id="app_splash_logo" d="M-1876.469,237.673q-1.679-2.2-1.68-6.56v-.376h-.022a1,1,0,0,1-1-1,1,1,0,0,1,1-1h.022V218.593h3.52v11.84q0,6.4,4.441,6.4a6.785,6.785,0,0,0,4.06-1.38,8.146,8.146,0,0,0,2.82-3.78V218.593h3.52v16.56q0,1.241,1.12,1.28v3.04c-.4.053-.714.087-.941.1s-.446.021-.66.021a2.529,2.529,0,0,1-1.74-.62,2.106,2.106,0,0,1-.741-1.54l-.08-2.441a9.672,9.672,0,0,1-3.679,3.621,10.17,10.17,0,0,1-5,1.26A5.852,5.852,0,0,1-1876.469,237.673Zm-51.64,1.32a9.928,9.928,0,0,1-3.16-2.36,10.9,10.9,0,0,1-2.06-3.441,11.563,11.563,0,0,1-.74-4.119,12.441,12.441,0,0,1,.7-4.181,10.863,10.863,0,0,1,1.959-3.46,9.327,9.327,0,0,1,3-2.34,8.5,8.5,0,0,1,3.82-.86,7.923,7.923,0,0,1,4.5,1.32,10.4,10.4,0,0,1,3.14,3.2V210.273h3.52v24.88q0,1.241,1.12,1.28v3.04q-.56.08-.9.121a5.787,5.787,0,0,1-.661.04,2.638,2.638,0,0,1-1.82-.7,2.119,2.119,0,0,1-.779-1.62v-1.76a8.781,8.781,0,0,1-3.3,3.18,8.838,8.838,0,0,1-4.34,1.14A9.151,9.151,0,0,1-1928.109,238.993Zm1.7-17.06a6.906,6.906,0,0,0-2.16,1.76,7.952,7.952,0,0,0-1.38,2.52,8.988,8.988,0,0,0-.481,2.9,8.047,8.047,0,0,0,.561,2.98,7.79,7.79,0,0,0,1.52,2.461,7.35,7.35,0,0,0,2.26,1.66,6.468,6.468,0,0,0,2.82.62,5.928,5.928,0,0,0,1.98-.36,7.743,7.743,0,0,0,1.92-1,7.245,7.245,0,0,0,1.561-1.5,4.468,4.468,0,0,0,.859-1.82v-6a6.65,6.65,0,0,0-1.08-1.9,8.506,8.506,0,0,0-1.62-1.56,7.9,7.9,0,0,0-1.92-1.04,5.769,5.769,0,0,0-2.021-.38A5.983,5.983,0,0,0-1926.409,221.933Zm25.24,16.5a13.886,13.886,0,0,1-4.219-3.24,14.512,14.512,0,0,1-2.721-4.6,15.249,15.249,0,0,1-.959-5.321,14.775,14.775,0,0,1,1.02-5.44,15,15,0,0,1,2.82-4.6,13.568,13.568,0,0,1,4.261-3.18,12.174,12.174,0,0,1,5.34-1.181,11.68,11.68,0,0,1,5.44,1.26,13.942,13.942,0,0,1,4.2,3.3,15.029,15.029,0,0,1,2.72,4.62,14.964,14.964,0,0,1,.96,5.26,14.729,14.729,0,0,1-1.02,5.46,15.049,15.049,0,0,1-2.821,4.579l3.56,4.12h-3.52l-2-2.32a13.825,13.825,0,0,1-3.52,1.84,12.13,12.13,0,0,1-4.081.679A11.966,11.966,0,0,1-1901.169,238.433Zm1.42-23.36a9.736,9.736,0,0,0-3.06,2.54,11.765,11.765,0,0,0-1.939,3.58,12.59,12.59,0,0,0-.68,4.08,12.665,12.665,0,0,0,.7,4.18,11.567,11.567,0,0,0,1.98,3.58,9.584,9.584,0,0,0,3.08,2.48,8.656,8.656,0,0,0,4,.92,8.7,8.7,0,0,0,2.92-.48,9.2,9.2,0,0,0,2.48-1.32l-3.8-4.44h3.52l2.161,2.52a12.324,12.324,0,0,0,1.8-3.48,12.437,12.437,0,0,0,.64-3.96,12.685,12.685,0,0,0-.7-4.18,11.347,11.347,0,0,0-2-3.58,9.876,9.876,0,0,0-3.081-2.48,8.442,8.442,0,0,0-3.939-.921A8.54,8.54,0,0,0-1899.749,215.073Zm53.4,24.4v-2.28l13.36-16.04h-13v-2.561h16.76v2.281l-13.28,16.04h13.32v2.56Zm-7.56,0v-20.88h3.52v20.88Zm-87.8,0v-11.68a8.995,8.995,0,0,0-1.02-4.88,3.479,3.479,0,0,0-3.1-1.52,5.925,5.925,0,0,0-2.16.42,8.533,8.533,0,0,0-2.039,1.14,7.875,7.875,0,0,0-1.68,1.72,7.367,7.367,0,0,0-1.08,2.2v12.6h-3.52v-20.88h3.2v4.48a9.187,9.187,0,0,1,3.58-3.52,10.2,10.2,0,0,1,5.1-1.32,6.164,6.164,0,0,1,3,.661,5.085,5.085,0,0,1,1.921,1.84,8.191,8.191,0,0,1,1.02,2.78,18.931,18.931,0,0,1,.3,3.48v12.479Zm-23.8,0v-18.12h-7.16v18.12h-3.52v-18.12h-2.84v-2.76h2.84v-.44a9.806,9.806,0,0,1,.48-3.039,7.944,7.944,0,0,1,1.44-2.641,7.32,7.32,0,0,1,2.4-1.88,7.524,7.524,0,0,1,3.4-.72,10,10,0,0,1,3.9.7,15.658,15.658,0,0,1,2.66,1.38l-1.52,2.6a6.99,6.99,0,0,0-2.08-1.16,7.814,7.814,0,0,0-2.76-.48,3.986,3.986,0,0,0-1.98.46,4.324,4.324,0,0,0-1.36,1.18,4.957,4.957,0,0,0-.8,1.641,6.721,6.721,0,0,0-.26,1.84v.56h10.68v20.88Zm111.6-24.8v-4.4h3.52v4.4Zm-49.406-35.5h-11.073l-2.249-1.073a12.909,12.909,0,0,1-7.544-11.524l-.174-2.941-2.007-1.868a13.774,13.774,0,0,1-3.149-4.153l-1.141-2.284-.243-10.243c-.138-5.605-.346-10.866-.449-11.7a20.885,20.885,0,0,0-1.558-4.153c-1.28-2.526-2.11-3.564-9.031-11.282a51.635,51.635,0,0,1-12.457-25.745c-1.142-6.782-.761-18.132.692-20.139a2.679,2.679,0,0,1,3.84-.347c.623.623.727,1,.554,2.354-.1.9-.311,4.222-.416,7.405-.276,6.782.242,10.8,2.111,16.437a46.41,46.41,0,0,0,10.416,17.51c6.955,7.647,8.893,10.381,10.346,14.741l.8,2.284h45.158l.554-2.076c1.21-4.326,3.114-7.337,8.443-13.289,4.6-5.121,7.2-8.754,9.309-13.011a45.324,45.324,0,0,0,4.775-20.9,44.664,44.664,0,0,0-5.087-21.593,46.656,46.656,0,0,0-25.988-22.874,46.548,46.548,0,0,0-29.9,0,47.606,47.606,0,0,0-25.4,21.559,37.2,37.2,0,0,1-2.146,3.564,2.4,2.4,0,0,1-3.495-.277c-.969-1.246-.934-1.833.45-4.568a53.26,53.26,0,0,1,27.891-24.881,61.29,61.29,0,0,1,12.007-2.838,51.323,51.323,0,0,1,51.319,28.168c3.91,7.925,5.155,12.976,5.432,21.973.139,5.467.069,7.024-.519,10.554-1.9,11.039-6.194,19.344-14.88,28.652-3.149,3.425-5.71,7.024-6.713,9.551-.726,1.834-.8,2.561-.969,13.531l-.173,11.626-1.142,2.284a13.755,13.755,0,0,1-3.148,4.153l-2.007,1.868-.174,2.941a12.909,12.909,0,0,1-7.544,11.524l-2.249,1.073Zm-15.745-12.389c.035,2.838,2.6,6.09,5.5,6.955,1.8.554,18.687.554,20.486,0,2.907-.865,5.467-4.118,5.5-6.955V165.5h-31.49Zm-6.574-14.188a10.183,10.183,0,0,0,2.353,5.053,9.912,9.912,0,0,0,2.318,1.73c1.35.761,1.661.761,17.648.761s16.3,0,17.648-.761a9.9,9.9,0,0,0,2.319-1.73,10.191,10.191,0,0,0,2.353-5.053v-.934h-3.425c-2.907,0-3.53-.1-4.325-.727a2.587,2.587,0,0,1-.208-3.772c.588-.588,1.142-.692,4.325-.692h3.633v-8.651h-44.639v8.651h13.668c13.219,0,13.7.035,14.361.692a2.406,2.406,0,0,1-.208,3.738l-.865.761h-26.957Zm78.257-3.359-11.812-11.812a3.58,3.58,0,0,1,0-5.062,3.58,3.58,0,0,1,5.063,0l11.812,11.812a3.58,3.58,0,0,1,0,5.063,3.566,3.566,0,0,1-2.531,1.048A3.569,3.569,0,0,1-1847.376,149.234Zm-117.651,0a3.58,3.58,0,0,1,0-5.062l11.813-11.812a3.579,3.579,0,0,1,5.062,0,3.579,3.579,0,0,1,0,5.063l-11.812,11.812a3.569,3.569,0,0,1-2.532,1.048A3.567,3.567,0,0,1-1965.028,149.234Zm57.508-36.679c-3.506,0-3.685-.258-16.9-14.88a92.844,92.844,0,0,1-6.4-7.613,8.254,8.254,0,0,1,9.725-11.626c2.283.657,3.148,1.453,8.789,7.717a60.746,60.746,0,0,0,4.671,4.948c.139,0,4.188-5.053,9-11.246,8.444-10.866,9.759-12.25,12.042-13.011a9.933,9.933,0,0,1,6.471.865,8.339,8.339,0,0,1,3.391,10.762c-.934,1.8-6.367,8.512-7.232,8.893a2.291,2.291,0,0,1-3.079-1.141c-.761-1.419-.485-2.042,2.525-5.848a30.46,30.46,0,0,0,3.046-4.395,2.95,2.95,0,0,0-4.464-3.565c-.484.416-5.122,6.16-10.312,12.839-5.156,6.679-9.759,12.284-10.174,12.492-1.592.727-2.422.035-8.478-6.644-6.3-6.99-7.336-7.959-8.375-7.959-1.972,0-3.772,2.353-3.149,4.083.311.83,16.956,19.344,17.822,19.828a4.272,4.272,0,0,0,2.872.1,82.261,82.261,0,0,0,5.952-7.2c2.976-3.807,5.64-7.163,5.952-7.405,1.558-1.246,4.533.554,4.049,2.457-.208.83-9.136,12.631-11.419,15.087a7.581,7.581,0,0,1-5.917,2.457Zm69.894-23.066a3.579,3.579,0,0,1-3.579-3.579,3.579,3.579,0,0,1,3.579-3.579h16.7a3.579,3.579,0,0,1,3.579,3.579,3.579,3.579,0,0,1-3.579,3.579Zm-148.8,0A3.579,3.579,0,0,1-1990,85.91a3.579,3.579,0,0,1,3.579-3.579h16.7a3.579,3.579,0,0,1,3.579,3.579,3.579,3.579,0,0,1-3.579,3.579Zm127.233-45.257a3.58,3.58,0,0,1,0-5.062l11.812-11.812a3.579,3.579,0,0,1,5.063,0,3.579,3.579,0,0,1,0,5.062l-11.812,11.813a3.569,3.569,0,0,1-2.532,1.049A3.565,3.565,0,0,1-1859.188,44.233Zm-94.027,0-11.812-11.812a3.579,3.579,0,0,1,0-5.062,3.579,3.579,0,0,1,5.063,0l11.812,11.812a3.579,3.579,0,0,1,0,5.063,3.567,3.567,0,0,1-2.531,1.049A3.565,3.565,0,0,1-1953.215,44.233Zm46.384-23.949V3.579A3.58,3.58,0,0,1-1903.252,0a3.58,3.58,0,0,1,3.58,3.579v16.7a3.58,3.58,0,0,1-3.58,3.58A3.58,3.58,0,0,1-1906.831,20.284Z" transform="translate(1990)" fill="#fff"/>
</svg>
